<?xml version="1.0" encoding="UTF-8"?><!DOCTYPE svg PUBLIC "-//W3C//DTD SVG 1.1//EN" "http://www.w3.org/Graphics/SVG/1.1/DTD/svg11.dtd"><svg xmlns="http://www.w3.org/2000/svg" xmlns:xlink="http://www.w3.org/1999/xlink"><defs>
        <path id="a" d="M0 20h98.91V0H0z"/>
    
        <path id="a" d="M.235.038h113.332v84.468H.235z"/>
        <path id="c" d="M0 .519h109.2v138.95H0z"/>
        <path id="e" d="M.235.038h113.332v84.468H.235z"/>
        <path id="g" d="M0 .519h109.2v138.95H0z"/>
        <path id="i" d="M.235.038h113.332v84.468H.235z"/>
    </defs><symbol id="ico-arrow-menu-second-lvl" viewBox="0 0 6 10">
    <title>
        Path 2 Copy 7
    </title>
    <path d="M3.232 5.354L-.06 8.646l1.415 1.415L6.06 5.354 1.354.646-.061 2.061z" fill-rule="nonzero"/>
</symbol><symbol id="ico-arrow-menu" viewBox="0 0 10 6">
    <title>
        Path 2 Copy 7
    </title>
    <path d="M5.354 2.768L8.646 6.06l1.415-1.415L5.354-.06.646 4.646l1.415 1.415z" fill-rule="nonzero"/>
</symbol><symbol id="ico-arrow-right" viewBox="0 0 8 14">
    <title>
        Path 2 Copy 4
    </title>
    <path d="M.232 1.64L1.768.36 7.302 7l-5.534 6.64-1.536-1.28L4.698 7z" fill-rule="nonzero"/>
</symbol><symbol id="ico-bookmark" viewBox="0 0 20 26">
    <title>
        bookmark
    </title>
    <path d="M0 21.724L10.002 26 20 21.709V0H0z" fill-rule="evenodd"/>
</symbol><symbol id="ico-close" viewBox="0 0 15 15">
    <title>
        close
    </title>
    <path d="M7.5 6.06L13.261.298a1.018 1.018 0 1 1 1.44 1.44L8.942 7.5l5.76 5.761a1.018 1.018 0 1 1-1.44 1.44L7.5 8.942 1.739 14.7a1.018 1.018 0 1 1-1.44-1.44L6.058 7.5.3 1.739a1.018 1.018 0 1 1 1.44-1.44L7.5 6.058z" fill-rule="evenodd"/>
</symbol><symbol id="ico-location" viewBox="0 0 15 21">
    <title>
        location
    </title>
    <path d="M13.929 6.3c0-3.475-2.883-6.3-6.429-6.3-3.546 0-6.429 2.825-6.429 6.3 0 4.725 6.429 11.55 6.429 11.55s6.429-6.825 6.429-11.55zm-8.572 0c0-1.155.964-2.1 2.143-2.1 1.179 0 2.143.945 2.143 2.1 0 1.155-.954 2.1-2.143 2.1-1.179 0-2.143-.945-2.143-2.1zM0 18.9V21h15v-2.1H0z" fill-rule="evenodd"/>
</symbol><symbol id="ico-logo-monmouthshire" viewBox="0 0 99 20">
    <title>
        logo-monmouthshire
    </title>
    
    <g fill-rule="evenodd">
        <path d="M19.36 16.793c-4.328 0-7.849-3.531-7.849-7.872a2.623 2.623 0 0 0-2.616-2.624 2.623 2.623 0 0 0-2.616 2.624v8.397a.524.524 0 1 0 1.046 0V8.92c0-.868.704-1.574 1.57-1.574.865 0 1.569.706 1.57 1.573v.001c0 4.92 3.99 8.922 8.894 8.922a.524.524 0 0 0 0-1.05"/>
        <path d="M19.36 14.694c-3.174 0-5.756-2.589-5.756-5.772 0-4.341 3.52-7.872 7.848-7.872 4.327 0 7.848 3.53 7.848 7.87v.001a2.623 2.623 0 0 0 2.616 2.624.524.524 0 0 0 0-1.05c-.865 0-1.57-.705-1.57-1.573 0-4.92-3.99-8.922-8.894-8.922a8.853 8.853 0 0 0-6.276 2.605A8.888 8.888 0 0 0 8.895 0C3.99 0 0 4.002 0 8.921v8.397a.524.524 0 1 0 1.047 0V8.921c0-4.34 3.52-7.871 7.848-7.871 2.105 0 4.116.848 5.586 2.34-.221.28-.427.572-.614.877A6.802 6.802 0 0 0 8.895 2.1h-.001c-3.75 0-6.801 3.06-6.801 6.822v8.397a.524.524 0 1 0 1.046 0V8.921c0-3.183 2.582-5.772 5.755-5.772a5.757 5.757 0 0 1 4.45 2.11c-.172.384-.32.782-.437 1.193a4.707 4.707 0 0 0-4.012-2.254c-2.597 0-4.71 2.119-4.71 4.723v8.397a.524.524 0 1 0 1.047 0V8.921a3.672 3.672 0 0 1 3.663-3.673 3.672 3.672 0 0 1 3.662 3.673c0 3.762 3.052 6.823 6.802 6.823a.524.524 0 0 0 0-1.05"/>
        <path d="M31.916 16.793c-4.327 0-7.848-3.531-7.848-7.872V8.92a2.623 2.623 0 0 0-2.616-2.622 2.623 2.623 0 0 0-2.616 2.624.524.524 0 1 0 1.046 0c0-.868.705-1.574 1.57-1.574.865 0 1.57.706 1.57 1.574 0 4.92 3.99 8.922 8.894 8.922a.524.524 0 0 0 0-1.05"/>
        <path d="M31.916 14.694c-3.173 0-5.755-2.59-5.755-5.773 0-2.604-2.112-4.723-4.709-4.723-2.597 0-4.71 2.12-4.71 4.723l.001.003a2.623 2.623 0 0 0 2.616 2.621.524.524 0 0 0 0-1.05c-.865 0-1.57-.705-1.57-1.574a3.672 3.672 0 0 1 3.663-3.673 3.672 3.672 0 0 1 3.662 3.673c0 3.762 3.052 6.823 6.802 6.823a.524.524 0 0 0 0-1.05"/>
        <path d="M31.916 12.595a3.672 3.672 0 0 1-3.662-3.674c0-3.762-3.052-6.822-6.802-6.822-3.75 0-6.801 3.06-6.802 6.822 0 2.605 2.113 4.723 4.709 4.723a.524.524 0 0 0 0-1.049 3.672 3.672 0 0 1-3.662-3.673c0-3.184 2.581-5.773 5.755-5.773 3.173 0 5.755 2.59 5.755 5.773.001 2.604 2.113 4.722 4.71 4.722a.524.524 0 0 0 0-1.049"/>
        <path d="M42.394 8.626V2.427h-.839l-2.251 3.71-2.252-3.71h-.838v6.2h1.192V5.172l1.483 2.435h.83l1.483-2.435v3.453z"/>
        <path d="M45.44 7.652c-.67 0-1.13-.522-1.13-1.169 0-.646.46-1.178 1.13-1.178.672 0 1.13.532 1.13 1.178 0 .647-.458 1.17-1.13 1.17m0-3.41c-1.297 0-2.277 1-2.277 2.24 0 1.24.98 2.232 2.278 2.232s2.277-.992 2.277-2.232c0-1.24-.98-2.24-2.277-2.24"/>
        <path d="M49.567 5.837c.159-.222.556-.532 1.042-.532.264 0 .494.089.644.24.159.159.256.38.256.805v2.276h1.148V6.44c0-.735-.159-1.169-.441-1.505a1.927 1.927 0 0 0-2.693-.257V4.33h-1.104v4.295h1.148v-2.79z"/>
        <path d="M56.594 6.306v2.32h1.148V6.35c0-.177-.018-.336-.036-.478.15-.221.539-.567 1.033-.567.221 0 .468.071.645.266.132.15.212.345.212.735v2.32h1.148V6.35c0-.637-.16-1.08-.433-1.417-.344-.425-.91-.69-1.5-.69-.637 0-1.175.31-1.52.673a1.863 1.863 0 0 0-1.438-.673 1.7 1.7 0 0 0-1.157.434V4.33h-1.104v4.295h1.148v-2.79c.159-.203.512-.53.998-.53.22 0 .468.07.644.265.133.15.212.345.212.735"/>
        <path d="M63.66 7.652c-.67 0-1.13-.522-1.13-1.169 0-.646.46-1.178 1.13-1.178.672 0 1.131.532 1.131 1.178 0 .647-.46 1.17-1.13 1.17m0-3.41c-1.298 0-2.278 1-2.278 2.24 0 1.24.98 2.232 2.278 2.232s2.277-.992 2.277-2.232c0-1.24-.98-2.24-2.277-2.24"/>
        <path d="M69.592 8.28v.346h1.103V4.331h-1.148v2.79c-.158.204-.512.531-.997.531a.86.86 0 0 1-.645-.266c-.132-.15-.212-.345-.212-.734v-2.32h-1.147v2.275c0 .638.159 1.08.432 1.417.336.416.865.69 1.457.69a1.7 1.7 0 0 0 1.157-.433"/>
        <path d="M72.388 6.81c0 .612.097.993.318 1.285.291.39.794.62 1.483.62.22 0 .565-.036.715-.089l-.177-.974c-.079.018-.3.044-.467.044-.283 0-.468-.08-.583-.212-.097-.115-.141-.275-.141-.54V5.305h1.412v-.974h-1.412V3.136h-1.148V4.33h-1.192v.974h1.192v1.506z"/>
        <path d="M78.524 5.545c.16.159.257.38.257.805v2.276h1.147V6.44c0-.735-.159-1.169-.441-1.505a1.927 1.927 0 0 0-2.649-.293V2.34h-1.147v6.287h1.147v-2.79c.16-.22.556-.53 1.042-.53.265 0 .494.088.644.239"/>
        <path d="M82.171 7.74c-.432 0-.883-.159-1.174-.424l-.557.823c.504.372 1.13.576 1.722.576.9 0 1.704-.505 1.704-1.329 0-1.487-2.075-1.266-2.075-1.824 0-.221.265-.345.583-.345.31 0 .6.133.821.292l.539-.832c-.283-.222-.892-.434-1.448-.434-.848 0-1.642.513-1.642 1.337 0 1.381 2.074 1.151 2.074 1.797 0 .213-.238.364-.547.364"/>
        <path d="M87.691 6.35v2.276h1.148V6.44c0-.735-.159-1.169-.441-1.506a1.928 1.928 0 0 0-2.649-.292V2.34h-1.148v6.287h1.148v-2.79c.159-.22.556-.53 1.042-.53.265 0 .494.088.644.239.159.159.256.38.256.805"/>
        <mask id="b">
            <use xlink:href="#a"/>
        </mask>
        <path mask="url(#b)" d="M89.756 8.626h1.148V4.332h-1.148z"/>
        <path d="M90.33 3.543c.415 0 .75-.319.75-.735a.736.736 0 0 0-.75-.735.736.736 0 0 0-.75.735c0 .416.335.735.75.735" mask="url(#b)"/>
        <path d="M93 4.765v-.434h-1.104v4.295h1.148v-2.7c.14-.258.538-.62 1.041-.62.168 0 .336.017.415.044l.133-1.072c-.124-.017-.221-.035-.389-.035-.52 0-.988.204-1.245.522" mask="url(#b)"/>
        <path d="M95.97 5.925c.054-.39.442-.752.919-.752.468 0 .812.371.848.752H95.97zm2.94.514c0-1.196-.838-2.196-2.021-2.196-1.271 0-2.084 1.045-2.084 2.24 0 1.346.963 2.232 2.243 2.232.662 0 1.342-.275 1.757-.77l-.654-.656c-.203.221-.591.496-1.076.496-.61 0-1.095-.416-1.157-1.018h2.966c.018-.098.027-.213.027-.328z" mask="url(#b)"/>
        <path d="M39.604 16.91c-.239.23-.565.371-1.104.371h-1.668v-2.665H38.5c.539 0 .865.15 1.104.38.247.24.406.585.406.957s-.159.717-.406.957zm-2.772-4.818h1.465c.468 0 .733.133.918.328a.981.981 0 0 1 .265.682.982.982 0 0 1-.265.682c-.185.194-.45.327-.918.327h-1.465v-2.019zm2.622 2.179a1.506 1.506 0 0 0 .08-2.267c-.274-.257-.637-.417-1.21-.417h-2.022v6.2h2.225c.644 0 1.077-.178 1.404-.47.37-.337.609-.815.609-1.364 0-.744-.45-1.39-1.086-1.682z" mask="url(#b)"/>
        <path d="M44.414 16.555c-.265.505-.795.841-1.342.841-.441 0-.803-.212-1.015-.53-.141-.213-.23-.479-.23-1.046v-2.072h-.503V15.9c0 .54.088.868.238 1.142.292.514.848.833 1.51.833.556 0 1.077-.266 1.36-.638v.55h.485v-4.039h-.503v2.807z" mask="url(#b)"/>
        <path d="M46.356 11.897a.445.445 0 0 0-.441.452c0 .248.194.443.44.443.248 0 .451-.195.451-.443a.453.453 0 0 0-.45-.452" mask="url(#b)"/>
        <path mask="url(#b)" d="M46.109 17.786h.503v-4.038h-.503z"/>
        <path mask="url(#b)" d="M47.79 17.786h.503V11.5h-.503z"/>
        <path d="M52.677 16.51c-.318.55-.848.887-1.44.887-.343 0-.652-.124-.909-.302-.388-.274-.635-.77-.635-1.328 0-.522.212-.992.565-1.284.282-.23.636-.345.97-.345.743 0 1.272.513 1.449.814v1.559zm0-2.222c-.38-.407-.9-.629-1.457-.629-.485 0-.945.178-1.28.452-.459.39-.75.983-.75 1.656 0 .726.326 1.355.856 1.727.397.283.821.38 1.2.38.627 0 1.148-.274 1.449-.681v.593h.485V11.5h-.503v2.79z" mask="url(#b)"/>
        <path d="M54.619 11.897a.445.445 0 0 0-.442.452c0 .248.195.443.442.443s.45-.195.45-.443a.453.453 0 0 0-.45-.452" mask="url(#b)"/>
        <path mask="url(#b)" d="M54.372 17.786h.503v-4.038h-.503z"/>
        <path d="M57.964 13.66c-.565 0-1.095.221-1.422.655v-.567h-.485v4.038h.503V14.98c.309-.531.812-.841 1.395-.841.442 0 .821.203 1.05.54.142.204.23.46.23.992v2.116h.503v-2.152c0-.664-.123-1-.344-1.293-.327-.442-.848-.681-1.43-.681" mask="url(#b)"/>
        <path d="M64.05 16.511c-.318.549-.848.885-1.44.885-.343 0-.653-.123-.909-.3-.388-.275-.635-.77-.635-1.329 0-.522.211-.992.565-1.284.282-.23.636-.345.97-.345.743 0 1.272.513 1.449.814v1.559zm.018-2.205a1.958 1.958 0 0 0-1.475-.647c-.485 0-.945.178-1.28.452-.459.39-.75.983-.75 1.656 0 .726.326 1.355.856 1.727.397.283.82.38 1.2.38.627 0 1.13-.274 1.431-.663v.575c0 .505-.035.797-.159 1.045-.203.398-.618.69-1.298.69-.645 0-1.139-.3-1.44-.779l-.396.293c.406.61 1.06.965 1.827.965.883 0 1.457-.38 1.748-.93.168-.318.221-.708.221-1.302v-4.02h-.485v.558z" mask="url(#b)"/>
        <path d="M70.856 14.713c-.883-.549-2.128-.673-2.128-1.611 0-.673.557-1.098 1.245-1.098.512 0 .865.185 1.227.504l.336-.39c-.283-.247-.786-.62-1.58-.62-.99 0-1.757.665-1.757 1.63 0 .629.38.992.838 1.275.9.558 2.225.682 2.225 1.807 0 .717-.653 1.16-1.271 1.16-.813 0-1.298-.416-1.66-.885l-.388.345c.53.7 1.227 1.045 2.048 1.045 1.006 0 1.8-.682 1.8-1.665 0-.717-.423-1.178-.935-1.497" mask="url(#b)"/>
        <path d="M74.433 17.396c-.91 0-1.572-.726-1.572-1.629s.663-1.63 1.572-1.63c.91 0 1.571.727 1.571 1.63 0 .903-.662 1.63-1.571 1.63m0-3.737c-1.2 0-2.075.947-2.075 2.107 0 1.16.874 2.108 2.075 2.108 1.2 0 2.075-.948 2.075-2.108 0-1.16-.874-2.107-2.075-2.107" mask="url(#b)"/>
        <path d="M79.287 17.396c-.945 0-1.651-.726-1.651-1.629 0-.92.732-1.63 1.58-1.63.512 0 .918.222 1.218.514l.318-.363a2.104 2.104 0 0 0-1.536-.629c-1.21 0-2.084.975-2.084 2.108 0 1.293 1.042 2.108 2.164 2.108.617 0 1.191-.257 1.589-.7l-.362-.336c-.345.363-.769.557-1.236.557" mask="url(#b)"/>
        <path mask="url(#b)" d="M81.589 17.786h.503v-4.038h-.503z"/>
        <path d="M81.836 11.897a.445.445 0 0 0-.441.452c0 .248.194.443.44.443.248 0 .451-.195.451-.443a.453.453 0 0 0-.45-.452" mask="url(#b)"/>
        <path d="M83.483 15.35c.15-.698.68-1.212 1.395-1.212.698 0 1.245.505 1.35 1.213h-2.745zm1.395-1.69c-1.139 0-1.925.947-1.925 2.107 0 1.257.892 2.108 2.022 2.108.768 0 1.342-.363 1.642-.744l-.353-.337c-.318.39-.76.602-1.29.602-.926 0-1.482-.726-1.517-1.585h3.284c.009-.08.009-.141.009-.177 0-1.124-.795-1.974-1.872-1.974z" mask="url(#b)"/>
        <path d="M88.595 12.65h-.503v1.098h-1.13v.478h1.13v2.196c0 .479.097.771.274.992.273.346.706.46 1.077.46.159 0 .388-.026.52-.07l-.087-.46c-.15.044-.318.052-.433.052-.3 0-.53-.106-.671-.283-.106-.133-.177-.31-.177-.673v-2.214h1.369v-.478h-1.369V12.65z" mask="url(#b)"/>
        <path mask="url(#b)" d="M92.56 16.883l-1.51-3.135h-.565l1.818 3.71-1.103 2.454h.53l2.79-6.164h-.54z"/>
    </g>
</symbol><symbol id="ico-logo" viewBox="0 0 124 140">
    <title>
        logo
    </title>
    
    <g fill-rule="evenodd">
        <path d="M21.666 16.214a9.259 9.259 0 0 0-1.63-1.601c-1.2-.655-2.347-.983-3.439-.983h-5.684s1.845 2.396 1.845 2.474v9.644h4.382c.959 0 1.985-.363 3.077-1.092 1.69-1.358 2.536-2.971 2.536-4.84v-.4c0-1.025-.363-2.092-1.087-3.202m-2.245 6.295c-.724.728-1.641 1.092-2.752 1.092H14.93v-7.824h1.448c.465 0 .948.06 1.449.183 1.859.776 2.788 2.037 2.788 3.784 0 .976-.399 1.898-1.195 2.765"/>
        <path d="M31.736 20.726v-.036c.121 0 .338-.061.651-.182 1.473-.758 2.21-1.838 2.21-3.239v-.109c0-.594-.157-1.177-.471-1.747-.797-1.189-1.774-1.783-2.933-1.783h-8.44l1.85 2.474v9.644h2.172v-4.985h2.246l3.947 4.985h2.7l-3.932-5.022zm-4.96-2.11v-2.839h3.982l.688.073c.652.297.978.698.978 1.2v.292l-.037.254c-.228.68-.784 1.02-1.664 1.02h-3.948z"/>
        <path d="M40.607 21.2l1.286-3.425 1.285 3.424h-2.57zm6.446 4.075c-2.92-7.715-4.406-11.572-4.454-11.572h-4.177l1.787 2.402-3.672 9.643h2.261l.94-2.365h4.31l.94 2.365h2.21l.036-.037-.181-.436z"/>
        <path d="M53.819 18.616l-1.195 2.147h2.824V23.6h-1.702c-.797 0-1.485-.17-2.063-.51-1.28-.915-1.92-2.044-1.92-3.347 0-.634.145-1.092.145-1.092.706-1.917 2.07-2.875 4.091-2.875h2.246l.36.983h-.003l.147.393.002.006s2.485-3.408 2.485-3.53H53.71c-1.394 0-2.698.474-3.91 1.42-1.45 1.34-2.174 2.796-2.174 4.367v.364c0 1.626.641 3.081 1.92 4.367 1.218 1.068 2.45 1.601 3.693 1.601h4.382v-7.06l-.072-.072h-3.73z"/>
        <path d="M65.932 13.594c-3.35 0-6.065 2.729-6.065 6.095 0 3.367 2.715 6.096 6.065 6.096 3.35 0 6.065-2.73 6.065-6.096s-2.715-6.095-6.065-6.095m0 10.007c-2.15 0-3.893-1.751-3.893-3.912 0-2.16 1.743-3.912 3.893-3.912 2.15 0 3.893 1.751 3.893 3.912 0 2.16-1.743 3.912-3.893 3.912"/>
        <path d="M80.485 13.63l1.824 2.305v5.628h-.036c-1.377-1.82-3.452-4.464-6.228-7.933h-3.417l1.823 2.305V25.748h2.173v-7.897l6.228 7.897h1.594V13.63h-3.96z"/>
        <path d="M92.902 18.616h-3.11a1.417 1.417 0 0 1-1.412-1.42c0-.783.634-1.42 1.412-1.42H93.3l.52 1.384 2.485-3.53h-6.513c-1.956 0-3.547 1.6-3.547 3.566 0 1.966 1.591 3.566 3.547 3.566h3.11c.779 0 1.412.637 1.412 1.42 0 .783-.633 1.42-1.412 1.42h-3.68l-.521-1.383-2.485 3.529H92.903c1.955 0 3.547-1.6 3.547-3.566 0-1.966-1.592-3.566-3.548-3.566"/>
        <g transform="translate(10.026 31.3)">
            <mask id="b">
                <use xlink:href="#a"/>
            </mask>
            <path d="M66.144 44.856c-1.276.754-2.822 1.52-4.745 2.36-.341.148-.728.303-1.18.472-2.9 1.088-6.286 1.737-9.058 1.737-.958 0-1.657-.08-2.112-.17.868-1.253 3.035-3.13 6.338-4.57 2.567-1.118 5.104-1.733 7.145-1.733 1.485 0 2.642.32 3.174.882.16.17.222.234.358.661l.08.36zm40.645-26.282a121.62 121.62 0 0 0-3.028-.035h-.113c-5.933 0-17.855 1.44-31.2 11.071-.477-.134-.961-.25-1.447-.348L69.3 28.92l-.17-.033-.171-.017a26.083 26.083 0 0 0-2.453-.114c-4.788 0-10.219 1.264-15.708 3.655-8.134 3.546-14.139 9.083-16.063 14.812-1.074 3.196-.853 6.3.639 8.978 1.858 3.334 5.448 5.587 10.157 6.485-.884.237-1.738.432-2.532.57a24.54 24.54 0 0 1-4.17.378c-3.97 0-7.15-1.142-9.201-3.303-1.612-1.698-2.429-3.888-2.429-6.506 0-.302.012-.626.037-.964.467-6.361 5.261-13.687 12.824-19.595C45.597 28.94 51.869 26 57.721 24.989a25.693 25.693 0 0 1 3.406-.365l1.237-.043h.025l.099-.002 2.364-.058.75-2.256 2.526-7.603 12.586-7.86 8.047-5.026L79.365.564a65.936 65.936 0 0 0-8.396-.526c-2.945 0-6.006.188-9.097.559L61.836.6l-.034.005-4.595.649-.05.007-.053.01C46.2 3.158 34.668 8.515 24.634 16.355 10.38 27.49 1.291 41.968.323 55.083c-.06.802-.089 1.6-.089 2.375 0 7.101 2.43 13.415 7.028 18.257 5.461 5.751 13.338 8.791 22.78 8.791 2.703 0 5.54-.254 8.431-.755 7.932-1.37 16.275-4.6 24.128-9.336a54.68 54.68 0 0 0 5.34-3.701c4.193-3.276 7.842-7.1 10.551-11.06l.012-.016.011-.018.37-.552a38.557 38.557 0 0 0 .77-1.213c.136-.226.269-.454.4-.681a28.015 28.015 0 0 0 1.828-3.768c1.256-3.232 1.647-5.314 1.882-7.083.013-.098.025-.195.036-.293l.072-.624.107-.112c.472-.487.95-.984 1.396-1.451a16.047 16.047 0 0 1 .916 1.146c1.397 1.914 5.249 9.318 6.581 11.907a210.232 210.232 0 0 1 4.82-12.892 75.666 75.666 0 0 1 1.773-4.074c.485-1.05.942-1.981 1.356-2.75v.003a85.736 85.736 0 0 1 5.236-8.785 71.805 71.805 0 0 1 1.774-2.495c.168-.23.376-.491.581-.743a184.555 184.555 0 0 1 5.153-6.402l-6.778-.184z" mask="url(#b)"/>
        </g>
        <path d="M78.709 77.212c-1.612 1.107-3.647 2.178-6.39 3.375-.379.165-.8.333-1.288.516-3.186 1.195-6.774 1.88-9.844 1.88-1.601 0-2.942-.205-3.677-.56-.61-.296-.828-.585-.95-.804-.094-.17-.198-.472.013-1.094.729-2.173 3.996-4.89 7.946-6.612 2.882-1.256 5.663-1.92 8.04-1.92 2.157 0 3.816.547 4.798 1.582.453.475.666.86.904 1.635l.34 1.52.108.482zm8.812-11.13c.79.33 1.63.725 2.432 1.179-.242.216-.482.433-.72.65a13.021 13.021 0 0 0-1.712-1.829zm29.234-13.95c-.013-.001-1.28-.035-2.968-.035h-.114c-5.683 0-17.144 1.397-30.037 10.754l-.758.55a17.338 17.338 0 0 0-2.291-.625l-1.702-.342-.056-.01-.058-.007a23.872 23.872 0 0 0-2.24-.103c-4.482-.001-9.604 1.2-14.813 3.468-7.448 3.247-13.13 8.406-14.83 13.463-.864 2.573-.702 5.047.472 7.153 2.043 3.665 6.794 5.767 13.034 5.767 2.228 0 4.53-.267 6.867-.792l-.126.083c-3.403 2.271-9.306 4.56-13.73 5.324a26.756 26.756 0 0 1-4.55.412c-4.598 0-8.343-1.385-10.828-4.003-1.995-2.103-3.05-4.891-3.05-8.065 0-.357.015-.737.044-1.129.513-6.988 5.629-14.92 13.685-21.213 5.824-4.548 12.45-7.645 18.66-8.72a27.927 27.927 0 0 1 3.703-.396l1.267-.043h.047l.074-.002.789-.019.25-.752 2.783-8.376 13.276-8.292 2.682-1.675-3.133-.403a63.777 63.777 0 0 0-8.11-.509c-2.857 0-5.828.183-8.83.543l-4.618.651-.017.003-.018.003c-10.548 1.826-21.725 7.027-31.473 14.643-13.76 10.75-22.526 24.623-23.448 37.11a30.826 30.826 0 0 0-.082 2.21c0 6.51 2.215 12.284 6.406 16.698 5.026 5.293 12.341 8.092 21.154 8.092 2.575 0 5.284-.243 8.05-.723 7.66-1.324 15.737-4.453 23.353-9.047a52.311 52.311 0 0 0 5.118-3.549c4.013-3.134 7.497-6.784 10.078-10.555l.377-.563a37.426 37.426 0 0 0 .718-1.132c.13-.214.255-.428.378-.642a25.713 25.713 0 0 0 1.677-3.454c1.104-2.84 1.497-4.678 1.747-6.56.012-.084.022-.168.032-.25l.16-1.402.336-.336.298-.31c1.11-1.145 2.244-2.34 2.943-3.077.873.709 1.71 1.582 2.5 2.608.101.132.2.264.298.396 1.836 2.516 4.513 8.579 4.513 8.579l.774-2.665c3.46-11.911 9.994-21.463 12.641-25.017.582-.79 1.496-1.83 1.507-1.84l1.595-1.813-2.406-.065z"/>
        <path d="M94.748 70.144l.004.003-.004-.003z"/>
        <path d="M83.054 83.551c-.4.299-.805.598-1.215.897-2.422 1.763-5.044 3.49-7.94 4.752-1.032.45-2.094.857-3.155 1.21l-.17.057c-.632.448-1.542 1.079-2.816 1.93-3.495 2.33-9.536 4.696-14.163 5.496-7.007 1.214-12.825-.178-16.38-3.924-2.211-2.33-3.36-5.368-3.36-8.845 0-.398.015-.802.045-1.211.536-7.303 5.813-15.536 14.118-22.023 5.963-4.659 12.767-7.834 19.157-8.94a29.013 29.013 0 0 1 3.853-.412l1.268-.043.134-.002 2.901-8.732.01-.031 13.62-8.506c-4.868-.628-10.406-.716-16.665.035l-4.594.648c-10.369 1.797-21.37 6.918-30.975 14.422-13.514 10.558-22.118 24.13-23.016 36.303a28.727 28.727 0 0 0-.079 2.126c0 6.226 2.086 11.696 6.095 15.919 6.268 6.6 16.282 9.099 28.2 7.036 7.529-1.302 15.47-4.382 22.966-8.903a51.046 51.046 0 0 0 5.006-3.472c3.994-3.119 7.346-6.655 9.843-10.304l.368-.552a32.054 32.054 0 0 0 .693-1.092c.126-.207.246-.414.366-.62a24.782 24.782 0 0 0 1.602-3.298c1.063-2.736 1.44-4.497 1.68-6.3.01-.076.02-.153.028-.229-2.998 2.953-5.439 5.124-7.425 6.608"/>
        <path d="M81.84 84.448C72.32 104.053 28.3 116.706 23.481 90.4c-4.28-23.358 25.784-44.034 48.814-46.505 1.04-.07 2.045-.11 3.035-.135l.01-.031 13.62-8.506c-4.868-.628-10.406-.716-16.665.035l-4.594.648c-10.369 1.796-21.37 6.918-30.974 14.422-13.515 10.558-22.119 24.13-23.018 36.303a28.993 28.993 0 0 0-.078 2.126c0 6.226 2.086 11.695 6.095 15.919 6.268 6.6 16.282 9.099 28.2 7.036 7.53-1.302 15.47-4.382 22.966-8.903a51.017 51.017 0 0 0 5.006-3.472c3.994-3.119 7.346-6.655 9.843-10.304l.368-.552a37.838 37.838 0 0 0 .693-1.092c.126-.207.246-.414.367-.62a24.88 24.88 0 0 0 1.601-3.298c1.062-2.736 1.44-4.497 1.68-6.3l.028-.228c-2.999 2.952-5.44 5.123-7.425 6.607-.399.3-.805.598-1.215.897"/>
        <path d="M113.786 53.226h-.002c-5.079-.018-16.566 1.161-29.49 10.54 0 0 3.549.933 6.5 2.68 0 0 5.573-5.278 13.977-8.373h.001c-5.365 2.93-11.128 7.102-16.29 12.09l-.103.107c-2.35 2.362-4.707 4.473-7.795 6.953-1.859 1.496-4.271 2.852-7.818 4.4-.443.192-.891.37-1.342.538-5.724 2.147-12.003 2.441-14.402 1.278-.687-.333-1.144-.735-1.442-1.267-.313-.567-.337-1.225-.07-2.01.835-2.491 4.276-5.417 8.562-7.285 6.092-2.654 11.626-2.687 14.098-.08.588.616.884 1.152 1.178 2.123 0 0 .206.926.35 1.563.06-.047.125-.094.183-.142a127.628 127.628 0 0 0 4.669-3.96 111.48 111.48 0 0 0 3.91-3.626 12.215 12.215 0 0 0-4.763-3.815 15.666 15.666 0 0 0-3.33-1.057l-1.702-.342c-4.716-.45-10.437.636-16.5 3.277C55 69.94 49.555 74.842 47.953 79.606c-.76 2.264-.626 4.421.388 6.24 2.829 5.077 11.608 6.545 20.752 3.892a35.964 35.964 0 0 0 4.36-1.574c3.274-1.427 6.226-3.494 8.93-5.518 2.29-1.713 5.206-4.365 8.912-8.107l.287-.298a401.92 401.92 0 0 0 3.622-3.798c4.913 3.38 7.136 10.107 7.136 10.107 3.485-11.998 9.982-21.57 12.82-25.379.614-.834 1.564-1.911 1.564-1.911s-1.244-.034-2.938-.034"/>
        <path d="M92.79 64.777v-.002s-4.016-1.82-8.497-1.01c0 0 3.55.933 6.501 2.68 0 0 .709-.669 1.996-1.668"/>
        <path d="M95.712 67.046s-6.344 6.407-15.35 14.11c-2.555 2.06-6.255 3.798-10.155 4.958-8.532 2.54-18.012 2.31-18.494-3.405-.702-8.328 11.305-14.325 20.293-15.595 7.72-1.092 11.602 3.852 12.544 5.268a111.935 111.935 0 0 0 3.91-3.627 12.217 12.217 0 0 0-4.764-3.815 15.692 15.692 0 0 0-3.33-1.057l-1.7-.341c-4.716-.45-10.438.635-16.501 3.276C55 69.942 49.554 74.842 47.953 79.606c-.76 2.264-.626 4.421.388 6.24 2.828 5.077 11.608 6.544 20.752 3.892a35.835 35.835 0 0 0 4.359-1.573c3.275-1.428 6.227-3.495 8.931-5.518 2.29-1.713 5.206-4.366 8.913-8.108l.287-.298c1.791-1.85 3.62-3.798 3.62-3.798 4.914 3.38 7.137 10.107 7.137 10.107-.216-8.256-6.628-13.504-6.628-13.504"/>
        <path d="M92.79 64.777v-.002s-4.016-1.82-8.497-1.01c0 0 3.55.933 6.501 2.68 0 0 .709-.669 1.996-1.668"/>
        <path d="M92.79 64.777v-.002s-4.016-1.82-8.497-1.01c0 0 3.55.933 6.501 2.68 0 0 .709-.669 1.996-1.668"/>
        <path d="M3.879 113.733L54.61 135.25l50.712-21.592V4.429H3.879z"/>
        <g transform="translate(0 .012)">
            <mask id="d">
                <use xlink:href="#c"/>
            </mask>
            <path d="M109.2.519H0v115.789l2.372 1.006 50.731 21.515 1.51.64 1.51-.642 50.713-21.592 2.366-1.007V.52zm-3.879 3.898v109.229L54.61 135.237 3.879 113.722V4.417H105.32z" mask="url(#d)"/>
        </g>
        <path d="M3.879 113.733L54.61 135.25l50.712-21.592V4.429H3.879z"/>
        <path d="M106.534 3.21H2.666v111.332l.742.314 50.73 21.515.473.2.471-.2 50.713-21.592.739-.314V3.21zm-1.213 1.22v109.228l-50.71 21.59-50.733-21.515V4.43h101.443z"/>
        <path d="M3.879 113.733L54.61 135.25l50.712-21.592V4.429H3.879z"/>
        <path d="M105.321 4.43H3.878v109.304l50.732 21.515 50.711-21.591V4.429zm-2.424 2.436v105.177l-48.289 20.56-48.304-20.486V6.866h96.593z"/>
        <path d="M21.666 16.214a9.259 9.259 0 0 0-1.63-1.601c-1.2-.655-2.347-.983-3.439-.983h-5.684s1.845 2.396 1.845 2.474v9.644h4.382c.959 0 1.985-.363 3.077-1.092 1.69-1.358 2.536-2.971 2.536-4.84v-.4c0-1.025-.363-2.092-1.087-3.202m-2.245 6.295c-.724.728-1.641 1.092-2.752 1.092H14.93v-7.824h1.448c.465 0 .948.06 1.449.183 1.859.776 2.788 2.037 2.788 3.784 0 .976-.399 1.898-1.195 2.765"/>
        <path d="M31.736 20.726v-.036c.121 0 .338-.061.651-.182 1.473-.758 2.21-1.838 2.21-3.239v-.109c0-.594-.157-1.177-.471-1.747-.797-1.189-1.774-1.783-2.933-1.783h-8.44l1.85 2.474v9.644h2.172v-4.985h2.246l3.947 4.985h2.7l-3.932-5.022zm-4.96-2.11v-2.839h3.982l.688.073c.652.297.978.698.978 1.2v.292l-.037.254c-.228.68-.784 1.02-1.664 1.02h-3.948z"/>
        <path d="M40.607 21.2l1.286-3.425 1.285 3.424h-2.57zm6.446 4.075c-2.92-7.715-4.406-11.572-4.454-11.572h-4.177l1.787 2.402-3.672 9.643h2.261l.94-2.365h4.31l.94 2.365h2.21l.036-.037-.181-.436z"/>
        <path d="M53.819 18.616l-1.195 2.147h2.824V23.6h-1.702c-.797 0-1.485-.17-2.063-.51-1.28-.915-1.92-2.044-1.92-3.347 0-.634.145-1.092.145-1.092.706-1.917 2.07-2.875 4.091-2.875h2.246l.36.983h-.003l.147.393.002.006s2.485-3.408 2.485-3.53H53.71c-1.394 0-2.698.474-3.91 1.42-1.45 1.34-2.174 2.796-2.174 4.367v.364c0 1.626.641 3.081 1.92 4.367 1.218 1.068 2.45 1.601 3.693 1.601h4.382v-7.06l-.072-.072h-3.73z"/>
        <path d="M65.932 13.594c-3.35 0-6.065 2.729-6.065 6.095 0 3.367 2.715 6.096 6.065 6.096 3.35 0 6.065-2.73 6.065-6.096s-2.715-6.095-6.065-6.095m0 10.007c-2.15 0-3.893-1.751-3.893-3.912 0-2.16 1.743-3.912 3.893-3.912 2.15 0 3.893 1.751 3.893 3.912 0 2.16-1.743 3.912-3.893 3.912"/>
        <path d="M80.485 13.63l1.824 2.305v5.628h-.036c-1.377-1.82-3.452-4.464-6.228-7.933h-3.417l1.823 2.305V25.748h2.173v-7.897l6.228 7.897h1.594V13.63h-3.96z"/>
        <path d="M92.902 18.616h-3.11a1.417 1.417 0 0 1-1.412-1.42c0-.783.634-1.42 1.412-1.42H93.3l.52 1.384 2.485-3.53h-6.513c-1.956 0-3.547 1.6-3.547 3.566 0 1.966 1.591 3.566 3.547 3.566h3.11c.779 0 1.412.637 1.412 1.42 0 .783-.633 1.42-1.412 1.42h-3.68l-.521-1.383-2.485 3.529H92.903c1.955 0 3.547-1.6 3.547-3.566 0-1.966-1.592-3.566-3.548-3.566"/>
        <g transform="translate(10.026 31.3)">
            <mask id="f">
                <use xlink:href="#e"/>
            </mask>
            <path d="M66.144 44.856c-1.276.754-2.822 1.52-4.745 2.36-.341.148-.728.303-1.18.472-2.9 1.088-6.286 1.737-9.058 1.737-.958 0-1.657-.08-2.112-.17.868-1.253 3.035-3.13 6.338-4.57 2.567-1.118 5.104-1.733 7.145-1.733 1.485 0 2.642.32 3.174.882.16.17.222.234.358.661l.08.36zm40.645-26.282a121.62 121.62 0 0 0-3.028-.035h-.113c-5.933 0-17.855 1.44-31.2 11.071-.477-.134-.961-.25-1.447-.348L69.3 28.92l-.17-.033-.171-.017a26.083 26.083 0 0 0-2.453-.114c-4.788 0-10.219 1.264-15.708 3.655-8.134 3.546-14.139 9.083-16.063 14.812-1.074 3.196-.853 6.3.639 8.978 1.858 3.334 5.448 5.587 10.157 6.485-.884.237-1.738.432-2.532.57a24.54 24.54 0 0 1-4.17.378c-3.97 0-7.15-1.142-9.201-3.303-1.612-1.698-2.429-3.888-2.429-6.506 0-.302.012-.626.037-.964.467-6.361 5.261-13.687 12.824-19.595C45.597 28.94 51.869 26 57.721 24.989a25.693 25.693 0 0 1 3.406-.365l1.237-.043h.025l.099-.002 2.364-.058.75-2.256 2.526-7.603 12.586-7.86 8.047-5.026L79.365.564a65.936 65.936 0 0 0-8.396-.526c-2.945 0-6.006.188-9.097.559L61.836.6l-.034.005-4.595.649-.05.007-.053.01C46.2 3.158 34.668 8.515 24.634 16.355 10.38 27.49 1.291 41.968.323 55.083c-.06.802-.089 1.6-.089 2.375 0 7.101 2.43 13.415 7.028 18.257 5.461 5.751 13.338 8.791 22.78 8.791 2.703 0 5.54-.254 8.431-.755 7.932-1.37 16.275-4.6 24.128-9.336a54.68 54.68 0 0 0 5.34-3.701c4.193-3.276 7.842-7.1 10.551-11.06l.012-.016.011-.018.37-.552a38.557 38.557 0 0 0 .77-1.213c.136-.226.269-.454.4-.681a28.015 28.015 0 0 0 1.828-3.768c1.256-3.232 1.647-5.314 1.882-7.083.013-.098.025-.195.036-.293l.072-.624.107-.112c.472-.487.95-.984 1.396-1.451a16.047 16.047 0 0 1 .916 1.146c1.397 1.914 5.249 9.318 6.581 11.907a210.232 210.232 0 0 1 4.82-12.892 75.666 75.666 0 0 1 1.773-4.074c.485-1.05.942-1.981 1.356-2.75v.003a85.736 85.736 0 0 1 5.236-8.785 71.805 71.805 0 0 1 1.774-2.495c.168-.23.376-.491.581-.743a184.555 184.555 0 0 1 5.153-6.402l-6.778-.184z" mask="url(#f)"/>
        </g>
        <path d="M78.709 77.212c-1.612 1.107-3.647 2.178-6.39 3.375-.379.165-.8.333-1.288.516-3.186 1.195-6.774 1.88-9.844 1.88-1.601 0-2.942-.205-3.677-.56-.61-.296-.828-.585-.95-.804-.094-.17-.198-.472.013-1.094.729-2.173 3.996-4.89 7.946-6.612 2.882-1.256 5.663-1.92 8.04-1.92 2.157 0 3.816.547 4.798 1.582.453.475.666.86.904 1.635l.34 1.52.108.482zm8.812-11.13c.79.33 1.63.725 2.432 1.179-.242.216-.482.433-.72.65a13.021 13.021 0 0 0-1.712-1.829zm29.234-13.95c-.013-.001-1.28-.035-2.968-.035h-.114c-5.683 0-17.144 1.397-30.037 10.754l-.758.55a17.338 17.338 0 0 0-2.291-.625l-1.702-.342-.056-.01-.058-.007a23.872 23.872 0 0 0-2.24-.103c-4.482-.001-9.604 1.2-14.813 3.468-7.448 3.247-13.13 8.406-14.83 13.463-.864 2.573-.702 5.047.472 7.153 2.043 3.665 6.794 5.767 13.034 5.767 2.228 0 4.53-.267 6.867-.792l-.126.083c-3.403 2.271-9.306 4.56-13.73 5.324a26.756 26.756 0 0 1-4.55.412c-4.598 0-8.343-1.385-10.828-4.003-1.995-2.103-3.05-4.891-3.05-8.065 0-.357.015-.737.044-1.129.513-6.988 5.629-14.92 13.685-21.213 5.824-4.548 12.45-7.645 18.66-8.72a27.927 27.927 0 0 1 3.703-.396l1.267-.043h.047l.074-.002.789-.019.25-.752 2.783-8.376 13.276-8.292 2.682-1.675-3.133-.403a63.777 63.777 0 0 0-8.11-.509c-2.857 0-5.828.183-8.83.543l-4.618.651-.017.003-.018.003c-10.548 1.826-21.725 7.027-31.473 14.643-13.76 10.75-22.526 24.623-23.448 37.11a30.826 30.826 0 0 0-.082 2.21c0 6.51 2.215 12.284 6.406 16.698 5.026 5.293 12.341 8.092 21.154 8.092 2.575 0 5.284-.243 8.05-.723 7.66-1.324 15.737-4.453 23.353-9.047a52.311 52.311 0 0 0 5.118-3.549c4.013-3.134 7.497-6.784 10.078-10.555l.377-.563a37.426 37.426 0 0 0 .718-1.132c.13-.214.255-.428.378-.642a25.713 25.713 0 0 0 1.677-3.454c1.104-2.84 1.497-4.678 1.747-6.56.012-.084.022-.168.032-.25l.16-1.402.336-.336.298-.31c1.11-1.145 2.244-2.34 2.943-3.077.873.709 1.71 1.582 2.5 2.608.101.132.2.264.298.396 1.836 2.516 4.513 8.579 4.513 8.579l.774-2.665c3.46-11.911 9.994-21.463 12.641-25.017.582-.79 1.496-1.83 1.507-1.84l1.595-1.813-2.406-.065z"/>
        <path d="M94.748 70.144l.004.003-.004-.003z"/>
        <path d="M83.054 83.551c-.4.299-.805.598-1.215.897-2.422 1.763-5.044 3.49-7.94 4.752-1.032.45-2.094.857-3.155 1.21l-.17.057c-.632.448-1.542 1.079-2.816 1.93-3.495 2.33-9.536 4.696-14.163 5.496-7.007 1.214-12.825-.178-16.38-3.924-2.211-2.33-3.36-5.368-3.36-8.845 0-.398.015-.802.045-1.211.536-7.303 5.813-15.536 14.118-22.023 5.963-4.659 12.767-7.834 19.157-8.94a29.013 29.013 0 0 1 3.853-.412l1.268-.043.134-.002 2.901-8.732.01-.031 13.62-8.506c-4.868-.628-10.406-.716-16.665.035l-4.594.648c-10.369 1.797-21.37 6.918-30.975 14.422-13.514 10.558-22.118 24.13-23.016 36.303a28.727 28.727 0 0 0-.079 2.126c0 6.226 2.086 11.696 6.095 15.919 6.268 6.6 16.282 9.099 28.2 7.036 7.529-1.302 15.47-4.382 22.966-8.903a51.046 51.046 0 0 0 5.006-3.472c3.994-3.119 7.346-6.655 9.843-10.304l.368-.552a32.054 32.054 0 0 0 .693-1.092c.126-.207.246-.414.366-.62a24.782 24.782 0 0 0 1.602-3.298c1.063-2.736 1.44-4.497 1.68-6.3.01-.076.02-.153.028-.229-2.998 2.953-5.439 5.124-7.425 6.608"/>
        <path d="M81.84 84.448C72.32 104.053 28.3 116.706 23.481 90.4c-4.28-23.358 25.784-44.034 48.814-46.505 1.04-.07 2.045-.11 3.035-.135l.01-.031 13.62-8.506c-4.868-.628-10.406-.716-16.665.035l-4.594.648c-10.369 1.796-21.37 6.918-30.974 14.422-13.515 10.558-22.119 24.13-23.018 36.303a28.993 28.993 0 0 0-.078 2.126c0 6.226 2.086 11.695 6.095 15.919 6.268 6.6 16.282 9.099 28.2 7.036 7.53-1.302 15.47-4.382 22.966-8.903a51.017 51.017 0 0 0 5.006-3.472c3.994-3.119 7.346-6.655 9.843-10.304l.368-.552a37.838 37.838 0 0 0 .693-1.092c.126-.207.246-.414.367-.62a24.88 24.88 0 0 0 1.601-3.298c1.062-2.736 1.44-4.497 1.68-6.3l.028-.228c-2.999 2.952-5.44 5.123-7.425 6.607-.399.3-.805.598-1.215.897"/>
        <path d="M113.786 53.226h-.002c-5.079-.018-16.566 1.161-29.49 10.54 0 0 3.549.933 6.5 2.68 0 0 5.573-5.278 13.977-8.373h.001c-5.365 2.93-11.128 7.102-16.29 12.09l-.103.107c-2.35 2.362-4.707 4.473-7.795 6.953-1.859 1.496-4.271 2.852-7.818 4.4-.443.192-.891.37-1.342.538-5.724 2.147-12.003 2.441-14.402 1.278-.687-.333-1.144-.735-1.442-1.267-.313-.567-.337-1.225-.07-2.01.835-2.491 4.276-5.417 8.562-7.285 6.092-2.654 11.626-2.687 14.098-.08.588.616.884 1.152 1.178 2.123 0 0 .206.926.35 1.563.06-.047.125-.094.183-.142a127.628 127.628 0 0 0 4.669-3.96 111.48 111.48 0 0 0 3.91-3.626 12.215 12.215 0 0 0-4.763-3.815 15.666 15.666 0 0 0-3.33-1.057l-1.702-.342c-4.716-.45-10.437.636-16.5 3.277C55 69.94 49.555 74.842 47.953 79.606c-.76 2.264-.626 4.421.388 6.24 2.829 5.077 11.608 6.545 20.752 3.892a35.964 35.964 0 0 0 4.36-1.574c3.274-1.427 6.226-3.494 8.93-5.518 2.29-1.713 5.206-4.365 8.912-8.107l.287-.298a401.92 401.92 0 0 0 3.622-3.798c4.913 3.38 7.136 10.107 7.136 10.107 3.485-11.998 9.982-21.57 12.82-25.379.614-.834 1.564-1.911 1.564-1.911s-1.244-.034-2.938-.034"/>
        <path d="M92.79 64.777v-.002s-4.016-1.82-8.497-1.01c0 0 3.55.933 6.501 2.68 0 0 .709-.669 1.996-1.668"/>
        <path d="M95.712 67.046s-6.344 6.407-15.35 14.11c-2.555 2.06-6.255 3.798-10.155 4.958-8.532 2.54-18.012 2.31-18.494-3.405-.702-8.328 11.305-14.325 20.293-15.595 7.72-1.092 11.602 3.852 12.544 5.268a111.935 111.935 0 0 0 3.91-3.627 12.217 12.217 0 0 0-4.764-3.815 15.692 15.692 0 0 0-3.33-1.057l-1.7-.341c-4.716-.45-10.438.635-16.501 3.276C55 69.942 49.554 74.842 47.953 79.606c-.76 2.264-.626 4.421.388 6.24 2.828 5.077 11.608 6.544 20.752 3.892a35.835 35.835 0 0 0 4.359-1.573c3.275-1.428 6.227-3.495 8.931-5.518 2.29-1.713 5.206-4.366 8.913-8.108l.287-.298c1.791-1.85 3.62-3.798 3.62-3.798 4.914 3.38 7.137 10.107 7.137 10.107-.216-8.256-6.628-13.504-6.628-13.504"/>
        <path d="M92.79 64.777v-.002s-4.016-1.82-8.497-1.01c0 0 3.55.933 6.501 2.68 0 0 .709-.669 1.996-1.668"/>
        <path d="M92.79 64.777v-.002s-4.016-1.82-8.497-1.01c0 0 3.55.933 6.501 2.68 0 0 .709-.669 1.996-1.668"/>
        <path d="M3.879 113.733L54.61 135.25l50.712-21.592V4.429H3.879z"/>
        <g transform="translate(0 .012)">
            <mask id="h">
                <use xlink:href="#g"/>
            </mask>
            <path d="M109.2.519H0v115.789l2.372 1.006 50.731 21.515 1.51.64 1.51-.642 50.713-21.592 2.366-1.007V.52zm-3.879 3.898v109.229L54.61 135.237 3.879 113.722V4.417H105.32z" mask="url(#h)"/>
        </g>
        <path d="M3.879 113.733L54.61 135.25l50.712-21.592V4.429H3.879z"/>
        <path d="M106.534 3.21H2.666v111.332l.742.314 50.73 21.515.473.2.471-.2 50.713-21.592.739-.314V3.21zm-1.213 1.22v109.228l-50.71 21.59-50.733-21.515V4.43h101.443z"/>
        <path d="M3.879 113.733L54.61 135.25l50.712-21.592V4.429H3.879z"/>
        <path d="M105.321 4.43H3.878v109.304l50.732 21.515 50.711-21.591V4.429zm-2.424 2.436v105.177l-48.289 20.56-48.304-20.486V6.866h96.593z"/>
        <path d="M21.666 16.214a9.259 9.259 0 0 0-1.63-1.601c-1.2-.655-2.347-.983-3.439-.983h-5.684s1.845 2.396 1.845 2.474v9.644h4.382c.959 0 1.985-.363 3.077-1.092 1.69-1.358 2.536-2.971 2.536-4.84v-.4c0-1.025-.363-2.092-1.087-3.202m-2.245 6.295c-.724.728-1.641 1.092-2.752 1.092H14.93v-7.824h1.448c.465 0 .948.06 1.449.183 1.859.776 2.788 2.037 2.788 3.784 0 .976-.399 1.898-1.195 2.765"/>
        <path d="M31.736 20.726v-.036c.121 0 .338-.061.651-.182 1.473-.758 2.21-1.838 2.21-3.239v-.109c0-.594-.157-1.177-.471-1.747-.797-1.189-1.774-1.783-2.933-1.783h-8.44l1.85 2.474v9.644h2.172v-4.985h2.246l3.947 4.985h2.7l-3.932-5.022zm-4.96-2.11v-2.839h3.982l.688.073c.652.297.978.698.978 1.2v.292l-.037.254c-.228.68-.784 1.02-1.664 1.02h-3.948z"/>
        <path d="M40.607 21.2l1.286-3.425 1.285 3.424h-2.57zm6.446 4.075c-2.92-7.715-4.406-11.572-4.454-11.572h-4.177l1.787 2.402-3.672 9.643h2.261l.94-2.365h4.31l.94 2.365h2.21l.036-.037-.181-.436z"/>
        <path d="M53.819 18.616l-1.195 2.147h2.824V23.6h-1.702c-.797 0-1.485-.17-2.063-.51-1.28-.915-1.92-2.044-1.92-3.347 0-.634.145-1.092.145-1.092.706-1.917 2.07-2.875 4.091-2.875h2.246l.36.983h-.003l.147.393.002.006s2.485-3.408 2.485-3.53H53.71c-1.394 0-2.698.474-3.91 1.42-1.45 1.34-2.174 2.796-2.174 4.367v.364c0 1.626.641 3.081 1.92 4.367 1.218 1.068 2.45 1.601 3.693 1.601h4.382v-7.06l-.072-.072h-3.73z"/>
        <path d="M65.932 13.594c-3.35 0-6.065 2.729-6.065 6.095 0 3.367 2.715 6.096 6.065 6.096 3.35 0 6.065-2.73 6.065-6.096s-2.715-6.095-6.065-6.095m0 10.007c-2.15 0-3.893-1.751-3.893-3.912 0-2.16 1.743-3.912 3.893-3.912 2.15 0 3.893 1.751 3.893 3.912 0 2.16-1.743 3.912-3.893 3.912"/>
        <path d="M80.485 13.63l1.824 2.305v5.628h-.036c-1.377-1.82-3.452-4.464-6.228-7.933h-3.417l1.823 2.305V25.748h2.173v-7.897l6.228 7.897h1.594V13.63h-3.96z"/>
        <path d="M92.902 18.616h-3.11a1.417 1.417 0 0 1-1.412-1.42c0-.783.634-1.42 1.412-1.42H93.3l.52 1.384 2.485-3.53h-6.513c-1.956 0-3.547 1.6-3.547 3.566 0 1.966 1.591 3.566 3.547 3.566h3.11c.779 0 1.412.637 1.412 1.42 0 .783-.633 1.42-1.412 1.42h-3.68l-.521-1.383-2.485 3.529H92.903c1.955 0 3.547-1.6 3.547-3.566 0-1.966-1.592-3.566-3.548-3.566"/>
        <g transform="translate(10.026 31.3)">
            <mask id="j">
                <use xlink:href="#i"/>
            </mask>
            <path d="M66.144 44.856c-1.276.754-2.822 1.52-4.745 2.36-.341.148-.728.303-1.18.472-2.9 1.088-6.286 1.737-9.058 1.737-.958 0-1.657-.08-2.112-.17.868-1.253 3.035-3.13 6.338-4.57 2.567-1.118 5.104-1.733 7.145-1.733 1.485 0 2.642.32 3.174.882.16.17.222.234.358.661l.08.36zm40.645-26.282a121.62 121.62 0 0 0-3.028-.035h-.113c-5.933 0-17.855 1.44-31.2 11.071-.477-.134-.961-.25-1.447-.348L69.3 28.92l-.17-.033-.171-.017a26.083 26.083 0 0 0-2.453-.114c-4.788 0-10.219 1.264-15.708 3.655-8.134 3.546-14.139 9.083-16.063 14.812-1.074 3.196-.853 6.3.639 8.978 1.858 3.334 5.448 5.587 10.157 6.485-.884.237-1.738.432-2.532.57a24.54 24.54 0 0 1-4.17.378c-3.97 0-7.15-1.142-9.201-3.303-1.612-1.698-2.429-3.888-2.429-6.506 0-.302.012-.626.037-.964.467-6.361 5.261-13.687 12.824-19.595C45.597 28.94 51.869 26 57.721 24.989a25.693 25.693 0 0 1 3.406-.365l1.237-.043h.025l.099-.002 2.364-.058.75-2.256 2.526-7.603 12.586-7.86 8.047-5.026L79.365.564a65.936 65.936 0 0 0-8.396-.526c-2.945 0-6.006.188-9.097.559L61.836.6l-.034.005-4.595.649-.05.007-.053.01C46.2 3.158 34.668 8.515 24.634 16.355 10.38 27.49 1.291 41.968.323 55.083c-.06.802-.089 1.6-.089 2.375 0 7.101 2.43 13.415 7.028 18.257 5.461 5.751 13.338 8.791 22.78 8.791 2.703 0 5.54-.254 8.431-.755 7.932-1.37 16.275-4.6 24.128-9.336a54.68 54.68 0 0 0 5.34-3.701c4.193-3.276 7.842-7.1 10.551-11.06l.012-.016.011-.018.37-.552a38.557 38.557 0 0 0 .77-1.213c.136-.226.269-.454.4-.681a28.015 28.015 0 0 0 1.828-3.768c1.256-3.232 1.647-5.314 1.882-7.083.013-.098.025-.195.036-.293l.072-.624.107-.112c.472-.487.95-.984 1.396-1.451a16.047 16.047 0 0 1 .916 1.146c1.397 1.914 5.249 9.318 6.581 11.907a210.232 210.232 0 0 1 4.82-12.892 75.666 75.666 0 0 1 1.773-4.074c.485-1.05.942-1.981 1.356-2.75v.003a85.736 85.736 0 0 1 5.236-8.785 71.805 71.805 0 0 1 1.774-2.495c.168-.23.376-.491.581-.743a184.555 184.555 0 0 1 5.153-6.402l-6.778-.184z" mask="url(#j)"/>
        </g>
        <path d="M78.709 77.212c-1.612 1.107-3.647 2.178-6.39 3.375-.379.165-.8.333-1.288.516-3.186 1.195-6.774 1.88-9.844 1.88-1.601 0-2.942-.205-3.677-.56-.61-.296-.828-.585-.95-.804-.094-.17-.198-.472.013-1.094.729-2.173 3.996-4.89 7.946-6.612 2.882-1.256 5.663-1.92 8.04-1.92 2.157 0 3.816.547 4.798 1.582.453.475.666.86.904 1.635l.34 1.52.108.482zm8.812-11.13c.79.33 1.63.725 2.432 1.179-.242.216-.482.433-.72.65a13.021 13.021 0 0 0-1.712-1.829zm29.234-13.95c-.013-.001-1.28-.035-2.968-.035h-.114c-5.683 0-17.144 1.397-30.037 10.754l-.758.55a17.338 17.338 0 0 0-2.291-.625l-1.702-.342-.056-.01-.058-.007a23.872 23.872 0 0 0-2.24-.103c-4.482-.001-9.604 1.2-14.813 3.468-7.448 3.247-13.13 8.406-14.83 13.463-.864 2.573-.702 5.047.472 7.153 2.043 3.665 6.794 5.767 13.034 5.767 2.228 0 4.53-.267 6.867-.792l-.126.083c-3.403 2.271-9.306 4.56-13.73 5.324a26.756 26.756 0 0 1-4.55.412c-4.598 0-8.343-1.385-10.828-4.003-1.995-2.103-3.05-4.891-3.05-8.065 0-.357.015-.737.044-1.129.513-6.988 5.629-14.92 13.685-21.213 5.824-4.548 12.45-7.645 18.66-8.72a27.927 27.927 0 0 1 3.703-.396l1.267-.043h.047l.074-.002.789-.019.25-.752 2.783-8.376 13.276-8.292 2.682-1.675-3.133-.403a63.777 63.777 0 0 0-8.11-.509c-2.857 0-5.828.183-8.83.543l-4.618.651-.017.003-.018.003c-10.548 1.826-21.725 7.027-31.473 14.643-13.76 10.75-22.526 24.623-23.448 37.11a30.826 30.826 0 0 0-.082 2.21c0 6.51 2.215 12.284 6.406 16.698 5.026 5.293 12.341 8.092 21.154 8.092 2.575 0 5.284-.243 8.05-.723 7.66-1.324 15.737-4.453 23.353-9.047a52.311 52.311 0 0 0 5.118-3.549c4.013-3.134 7.497-6.784 10.078-10.555l.377-.563a37.426 37.426 0 0 0 .718-1.132c.13-.214.255-.428.378-.642a25.713 25.713 0 0 0 1.677-3.454c1.104-2.84 1.497-4.678 1.747-6.56.012-.084.022-.168.032-.25l.16-1.402.336-.336.298-.31c1.11-1.145 2.244-2.34 2.943-3.077.873.709 1.71 1.582 2.5 2.608.101.132.2.264.298.396 1.836 2.516 4.513 8.579 4.513 8.579l.774-2.665c3.46-11.911 9.994-21.463 12.641-25.017.582-.79 1.496-1.83 1.507-1.84l1.595-1.813-2.406-.065z"/>
        <path d="M94.748 70.144l.004.003-.004-.003z"/>
        <path d="M83.054 83.551c-.4.299-.805.598-1.215.897-2.422 1.763-5.044 3.49-7.94 4.752-1.032.45-2.094.857-3.155 1.21l-.17.057c-.632.448-1.542 1.079-2.816 1.93-3.495 2.33-9.536 4.696-14.163 5.496-7.007 1.214-12.825-.178-16.38-3.924-2.211-2.33-3.36-5.368-3.36-8.845 0-.398.015-.802.045-1.211.536-7.303 5.813-15.536 14.118-22.023 5.963-4.659 12.767-7.834 19.157-8.94a29.013 29.013 0 0 1 3.853-.412l1.268-.043.134-.002 2.901-8.732.01-.031 13.62-8.506c-4.868-.628-10.406-.716-16.665.035l-4.594.648c-10.369 1.797-21.37 6.918-30.975 14.422-13.514 10.558-22.118 24.13-23.016 36.303a28.727 28.727 0 0 0-.079 2.126c0 6.226 2.086 11.696 6.095 15.919 6.268 6.6 16.282 9.099 28.2 7.036 7.529-1.302 15.47-4.382 22.966-8.903a51.046 51.046 0 0 0 5.006-3.472c3.994-3.119 7.346-6.655 9.843-10.304l.368-.552a32.054 32.054 0 0 0 .693-1.092c.126-.207.246-.414.366-.62a24.782 24.782 0 0 0 1.602-3.298c1.063-2.736 1.44-4.497 1.68-6.3.01-.076.02-.153.028-.229-2.998 2.953-5.439 5.124-7.425 6.608"/>
        <path d="M81.84 84.448C72.32 104.053 28.3 116.706 23.481 90.4c-4.28-23.358 25.784-44.034 48.814-46.505 1.04-.07 2.045-.11 3.035-.135l.01-.031 13.62-8.506c-4.868-.628-10.406-.716-16.665.035l-4.594.648c-10.369 1.796-21.37 6.918-30.974 14.422-13.515 10.558-22.119 24.13-23.018 36.303a28.993 28.993 0 0 0-.078 2.126c0 6.226 2.086 11.695 6.095 15.919 6.268 6.6 16.282 9.099 28.2 7.036 7.53-1.302 15.47-4.382 22.966-8.903a51.017 51.017 0 0 0 5.006-3.472c3.994-3.119 7.346-6.655 9.843-10.304l.368-.552a37.838 37.838 0 0 0 .693-1.092c.126-.207.246-.414.367-.62a24.88 24.88 0 0 0 1.601-3.298c1.062-2.736 1.44-4.497 1.68-6.3l.028-.228c-2.999 2.952-5.44 5.123-7.425 6.607-.399.3-.805.598-1.215.897"/>
        <path d="M113.786 53.226h-.002c-5.079-.018-16.566 1.161-29.49 10.54 0 0 3.549.933 6.5 2.68 0 0 5.573-5.278 13.977-8.373h.001c-5.365 2.93-11.128 7.102-16.29 12.09l-.103.107c-2.35 2.362-4.707 4.473-7.795 6.953-1.859 1.496-4.271 2.852-7.818 4.4-.443.192-.891.37-1.342.538-5.724 2.147-12.003 2.441-14.402 1.278-.687-.333-1.144-.735-1.442-1.267-.313-.567-.337-1.225-.07-2.01.835-2.491 4.276-5.417 8.562-7.285 6.092-2.654 11.626-2.687 14.098-.08.588.616.884 1.152 1.178 2.123 0 0 .206.926.35 1.563.06-.047.125-.094.183-.142a127.628 127.628 0 0 0 4.669-3.96 111.48 111.48 0 0 0 3.91-3.626 12.215 12.215 0 0 0-4.763-3.815 15.666 15.666 0 0 0-3.33-1.057l-1.702-.342c-4.716-.45-10.437.636-16.5 3.277C55 69.94 49.555 74.842 47.953 79.606c-.76 2.264-.626 4.421.388 6.24 2.829 5.077 11.608 6.545 20.752 3.892a35.964 35.964 0 0 0 4.36-1.574c3.274-1.427 6.226-3.494 8.93-5.518 2.29-1.713 5.206-4.365 8.912-8.107l.287-.298a401.92 401.92 0 0 0 3.622-3.798c4.913 3.38 7.136 10.107 7.136 10.107 3.485-11.998 9.982-21.57 12.82-25.379.614-.834 1.564-1.911 1.564-1.911s-1.244-.034-2.938-.034"/>
        <path d="M92.79 64.777v-.002s-4.016-1.82-8.497-1.01c0 0 3.55.933 6.501 2.68 0 0 .709-.669 1.996-1.668"/>
        <path d="M95.712 67.046s-6.344 6.407-15.35 14.11c-2.555 2.06-6.255 3.798-10.155 4.958-8.532 2.54-18.012 2.31-18.494-3.405-.702-8.328 11.305-14.325 20.293-15.595 7.72-1.092 11.602 3.852 12.544 5.268a111.935 111.935 0 0 0 3.91-3.627 12.217 12.217 0 0 0-4.764-3.815 15.692 15.692 0 0 0-3.33-1.057l-1.7-.341c-4.716-.45-10.438.635-16.501 3.276C55 69.942 49.554 74.842 47.953 79.606c-.76 2.264-.626 4.421.388 6.24 2.828 5.077 11.608 6.544 20.752 3.892a35.835 35.835 0 0 0 4.359-1.573c3.275-1.428 6.227-3.495 8.931-5.518 2.29-1.713 5.206-4.366 8.913-8.108l.287-.298c1.791-1.85 3.62-3.798 3.62-3.798 4.914 3.38 7.137 10.107 7.137 10.107-.216-8.256-6.628-13.504-6.628-13.504"/>
        <path d="M92.79 64.777v-.002s-4.016-1.82-8.497-1.01c0 0 3.55.933 6.501 2.68 0 0 .709-.669 1.996-1.668"/>
        <path d="M92.79 64.777v-.002s-4.016-1.82-8.497-1.01c0 0 3.55.933 6.501 2.68 0 0 .709-.669 1.996-1.668"/>
    </g>
</symbol><symbol id="ico-phone" viewBox="0 0 24 23">
    <title>
        phone
    </title>
    <path d="M5.27 9.813a18.91 18.91 0 0 0 8.233 8.22l2.749-2.744a1.244 1.244 0 0 1 1.274-.3c1.4.462 2.911.712 4.46.712.687 0 1.25.56 1.25 1.247v4.353c0 .686-.563 1.247-1.25 1.247-11.73 0-21.238-9.492-21.238-21.204 0-.686.562-1.247 1.25-1.247H6.37c.687 0 1.25.561 1.25 1.247 0 1.56.249 3.056.711 4.453a1.25 1.25 0 0 1-.312 1.272L5.27 9.813z" fill-rule="evenodd"/>
</symbol><symbol id="ico-play" viewBox="0 0 8 11">
    <title>
        play
    </title>
    <path d="M.002 11L8 5.52 0 0z" fill-rule="evenodd"/>
</symbol><symbol id="ico-select-down" viewBox="0 0 18 11">
    <title>
        select-down
    </title>
    <path d="M15.944-.061l1.976 2.258-8.988 7.864-8.988-7.864L1.92-.061l7.012 6.136z" fill-rule="nonzero"/>
</symbol><symbol id="ico-share" viewBox="0 0 18 20">
    <title>
        Icon
    </title>
    <path d="M15 14.08c-.76 0-1.44.3-1.96.77L5.91 10.7c.05-.23.09-.46.09-.7 0-.24-.04-.47-.09-.7l7.05-4.11c.54.5 1.25.81 2.04.81 1.66 0 3-1.34 3-3s-1.34-3-3-3-3 1.34-3 3c0 .24.04.47.09.7L5.04 7.81C4.5 7.31 3.79 7 3 7c-1.66 0-3 1.34-3 3s1.34 3 3 3c.79 0 1.5-.31 2.04-.81l7.12 4.16c-.05.21-.08.43-.08.65 0 1.61 1.31 2.92 2.92 2.92 1.61 0 2.92-1.31 2.92-2.92 0-1.61-1.31-2.92-2.92-2.92z" fill-rule="evenodd"/>
</symbol><symbol id="ico-social-facebook" viewBox="0 0 6 10">
    <title>
        social-facebook
    </title>
    <path d="M5.572 1.66h-.94c-.736 0-.88.351-.88.866V3.66H5.51l-.229 1.778H3.753V10H1.92V5.439H.389V3.66h1.532V2.35C1.92.828 2.848 0 4.203 0c.648 0 1.206.048 1.369.07v1.59z" fill-rule="evenodd"/>
</symbol><symbol id="ico-social-gplus" viewBox="0 0 12 8">
    <title>
        Combined Shape
    </title>
    <path d="M3.818 3.657h3.606c.032.19.06.38.06.63C7.484 6.458 6.022 8 3.818 8 1.708 8 0 6.3 0 4.2 0 2.1 1.707.4 3.818.4a3.67 3.67 0 0 1 2.558.993l-1.036.994c-.284-.272-.78-.586-1.522-.586-1.303 0-2.367 1.074-2.367 2.399s1.064 2.4 2.367 2.4c1.511 0 2.078-1.08 2.166-1.64H3.818V3.657zm8.182 0v1.086h-1.09v1.086H9.817V4.743h-1.09V3.657h1.09V2.571h1.091v1.086H12z" fill-rule="evenodd"/>
</symbol><symbol id="ico-social-instagram" viewBox="0 0 11 10">
    <title>
        social-instagram
    </title>
    <path d="M10.855 8.814c0 .655-.527 1.186-1.177 1.186h-7.55C1.48 10 .953 9.47.953 8.814V1.186C.952.53 1.479 0 2.129 0h7.549c.65 0 1.177.53 1.177 1.186v7.628zM5.915 6.93a1.912 1.912 0 0 0 1.904-1.919c0-1.059-.853-1.918-1.904-1.918A1.911 1.911 0 0 0 4.01 5.011c0 1.06.853 1.92 1.905 1.92zm2.193-3.883h1.339a.278.278 0 0 0 .277-.28V1.419a.278.278 0 0 0-.277-.278h-1.34a.278.278 0 0 0-.276.278v1.35c0 .154.124.279.277.279zm.82 1.965c0 1.673-1.352 3.035-3.013 3.035-1.661 0-3.013-1.362-3.013-3.035 0-.278.038-.547.108-.803h-.927v4.349c0 .154.124.28.277.28h7.11a.278.278 0 0 0 .277-.28V4.209H8.82c.07.256.107.525.107.803z" fill-rule="evenodd"/>
</symbol><symbol id="ico-social-twitter" viewBox="0 0 11 10">
    <title>
        social-twitter
    </title>
    <path d="M9.367 2.96c.004.089.006.177.006.266 0 2.71-2.076 5.837-5.872 5.837a5.87 5.87 0 0 1-3.164-.921 4.156 4.156 0 0 0 3.056-.85 2.064 2.064 0 0 1-1.929-1.425 2.094 2.094 0 0 0 .933-.035A2.055 2.055 0 0 1 .74 3.82v-.027c.278.154.597.247.935.257a2.048 2.048 0 0 1-.639-2.74 5.872 5.872 0 0 0 4.254 2.145 2.058 2.058 0 0 1 2.01-2.52c.595 0 1.13.25 1.507.648.47-.092.912-.262 1.31-.497-.153.479-.48.88-.907 1.135.418-.05.815-.16 1.186-.323a4.187 4.187 0 0 1-1.03 1.062" fill-rule="evenodd"/>
</symbol><symbol id="ico-social-youtube" viewBox="0 0 11 8">
    <title>
        social-youtube
    </title>
    <path d="M10.97 4.378c0 .81-.1 1.618-.1 1.618s-.097.69-.396.993c-.38.398-.805.4-1 .423-1.397.101-3.494.105-3.494.105s-2.595-.024-3.393-.1c-.222-.042-.721-.03-1.1-.428-.3-.304-.397-.993-.397-.993s-.1-.809-.1-1.618v-.759c0-.81.1-1.618.1-1.618s.097-.69.397-.993c.379-.398.804-.4 1-.423C3.882.483 5.977.483 5.977.483h.004s2.095 0 3.492.102c.195.023.62.025 1 .423.299.303.396.993.396.993s.1.809.1 1.618v.759zm-6.02.92l2.696-1.4-2.697-1.41v2.81z" fill-rule="evenodd"/>
</symbol><symbol id="ico-swiper-arrow" viewBox="0 0 6 9">
    <title>
        swiper-arrow
    </title>
    <path d="M5.317 1.65L3.8.35.24 4.5l3.558 4.15 1.518-1.3L2.875 4.5z" fill-rule="nonzero"/>
</symbol><symbol id="ico-ticket" viewBox="0 0 26 21">
    <title>
        ticket
    </title>
    <path d="M25.485 8.473v-4.99A2.496 2.496 0 0 0 22.986.99H2.997A2.485 2.485 0 0 0 .511 3.484v4.99a2.493 2.493 0 0 1 2.486 2.494A2.496 2.496 0 0 1 .5 13.462v4.99a2.504 2.504 0 0 0 2.498 2.494h19.99a2.504 2.504 0 0 0 2.498-2.494v-4.99a2.504 2.504 0 0 1-2.499-2.494 2.504 2.504 0 0 1 2.499-2.495zM14.24 17.828h-2.499v-2.495h2.5v2.495zm0-5.613h-2.499V9.72h2.5v2.495zm0-5.613h-2.499V4.108h2.5v2.494z" fill-rule="evenodd"/>
</symbol></svg>